<?xml version="1.0" standalone="no"?>
<!DOCTYPE svg PUBLIC "-//W3C//DTD SVG 20010904//EN"
 "http://www.w3.org/TR/2001/REC-SVG-20010904/DTD/svg10.dtd">
<svg version="1.0" xmlns="http://www.w3.org/2000/svg"
 width="344.000000pt" height="344.000000pt" viewBox="0 0 344.000000 344.000000"
 preserveAspectRatio="xMidYMid meet">
<metadata>
Created by potrace 1.14, written by Peter Selinger 2001-2017
</metadata>
<g transform="translate(0.000000,344.000000) scale(0.100000,-0.100000)"
fill="#000000" stroke="none">
<path d="M1630 3326 c-30 -10 -119 -56 -240 -128 -19 -11 -125 -72 -235 -136
-110 -63 -268 -155 -352 -204 -83 -48 -169 -97 -190 -109 -255 -143 -294 -170
-323 -234 -18 -37 -19 -75 -20 -577 l0 -538 57 34 c230 133 505 293 543 314
25 13 70 39 100 57 30 18 73 43 95 55 22 12 75 43 118 67 85 50 76 50 162 1
37 -21 121 -70 186 -108 14 -8 60 -34 102 -58 l76 -43 228 132 c125 73 280
162 343 199 277 161 317 184 350 203 59 33 433 249 462 267 l28 17 -28 30
c-22 25 -182 123 -393 241 -32 17 -171 99 -209 122 -76 47 -644 370 -674 384
-46 22 -135 27 -186 12z"/>
<path d="M3080 1976 c-30 -18 -167 -98 -305 -177 -137 -79 -259 -149 -270
-156 -11 -7 -27 -15 -35 -19 -8 -4 -51 -29 -95 -55 -231 -137 -661 -382 -670
-382 -5 0 -39 18 -75 39 -36 22 -137 82 -226 132 l-161 93 -184 -107 c-101
-58 -204 -117 -229 -131 -25 -14 -49 -29 -55 -33 -5 -4 -30 -18 -55 -32 -88
-49 -405 -231 -413 -238 -17 -15 41 -64 151 -129 64 -38 191 -111 282 -163 91
-52 311 -180 490 -283 179 -103 345 -197 368 -207 89 -40 178 -29 287 34 39
22 86 49 105 60 19 11 80 46 135 78 55 32 116 67 135 77 39 23 237 138 375
218 50 29 110 64 135 77 153 85 298 175 318 197 57 63 56 52 57 619 0 287 -2
522 -5 522 -3 0 -30 -15 -60 -34z"/>
</g>
</svg>
